<?xml version="1.0" standalone="no"?>
<!DOCTYPE svg PUBLIC "-//W3C//DTD SVG 20010904//EN"
 "http://www.w3.org/TR/2001/REC-SVG-20010904/DTD/svg10.dtd">
<svg version="1.0" xmlns="http://www.w3.org/2000/svg"
 width="200.000000pt" height="200.000000pt" viewBox="0 0 200.000000 200.000000"
 preserveAspectRatio="xMidYMid meet">
<metadata>
Created by potrace 1.11, written by Peter Selinger 2001-2013
</metadata>
<g transform="translate(0.000000,200.000000) scale(0.100000,-0.100000)"
fill="#000000" stroke="none">
<path d="M856 1892 c8 -8 246 -145 364 -210 68 -38 204 -115 209 -119 2 -1 4
-169 4 -373 0 -203 3 -370 6 -370 3 0 47 24 96 53 l90 53 2 374 3 375 -199
113 -199 112 -193 0 c-106 0 -189 -4 -183 -8z"/>
<path d="M544 1774 l-201 -116 -95 -166 c-52 -92 -94 -168 -93 -170 2 -2 36
17 76 40 41 24 81 47 89 51 8 4 24 13 35 20 103 62 393 227 400 227 4 0 75
-39 157 -87 338 -199 470 -274 474 -270 2 2 5 50 5 106 2 77 -1 105 -12 115
-12 12 -226 138 -379 224 -25 14 -73 42 -107 63 -56 35 -138 79 -145 79 -2 0
-93 -52 -204 -116z"/>
<path d="M438 1414 l-317 -186 0 -236 1 -236 89 -153 c49 -85 89 -158 89 -164
0 -5 4 -9 9 -9 4 0 9 145 9 323 0 177 1 332 1 343 1 20 117 94 432 274 15 8
65 37 113 64 47 27 86 52 86 56 0 6 -178 110 -189 110 -3 -1 -149 -84 -323
-186z"/>
<path d="M1683 1220 c1 -283 -2 -343 -14 -354 -13 -12 -262 -165 -339 -209
-232 -130 -281 -160 -273 -167 4 -5 46 -31 93 -59 l85 -50 65 36 c36 20 76 44
90 53 14 10 117 71 230 135 113 65 217 127 233 137 l27 19 0 234 0 233 -77
134 c-42 73 -86 148 -98 166 l-22 33 0 -341z"/>
<path d="M458 1148 l-88 -50 0 -377 0 -376 193 -109 192 -110 199 -2 c109 -1
194 2 190 6 -5 5 -79 48 -164 96 -85 48 -209 118 -275 156 -66 37 -124 69
-130 71 -6 2 -10 135 -11 368 -1 200 -2 367 -3 372 -2 12 -13 7 -103 -45z"/>
<path d="M610 581 l0 -110 30 -16 c16 -8 160 -91 320 -185 l290 -169 202 117
203 117 97 168 c53 92 93 167 89 167 -3 0 -22 -10 -41 -23 -19 -13 -78 -48
-130 -78 -52 -30 -103 -58 -112 -64 -83 -48 -294 -171 -300 -173 -4 -2 -145
77 -315 175 -169 98 -313 179 -320 181 -10 3 -13 -22 -13 -107z"/>
</g>
</svg>
